<svg xmlns="daichi.png" image-rendering="optimizeQuality" shape-rendering="geometricPrecision" text-rendering="geometricPrecision" viewBox="7.086 7.087 1277.149 924.008" id="Gmail">
  <path fill="none" d="M1138.734 931.095h.283M1139.017 931.095h-.283"></path>
  <path fill="#9a9a9a" d="M1179.439 7.087c57.543 0 104.627 47.083 104.627 104.626v30.331l-145.36 103.833-494.873 340.894L148.96 242.419v688.676h-37.247c-57.543 0-104.627-47.082-104.627-104.625V111.742C7.086 54.198 54.17 7.115 111.713 7.115l532.12 394.525L1179.41 7.115l.029-.028z" class="colore75a4d svgShape"></path>
  <linearGradient id="a" x1="1959.712" x2="26066.213" y1="737.107" y2="737.107" gradientTransform="matrix(.0283 0 0 -.0283 248.36 225.244)" gradientUnits="userSpaceOnUse">
    <stop offset="0" stop-color="#ffffff" class="stopColorf8f6ef svgShape"></stop>
    <stop offset="1" stop-color="#dedede" class="stopColore7e4d6 svgShape"></stop>
  </linearGradient>
  <path fill="url(#a)" d="M111.713 7.087l532.12 394.525L1179.439 7.087z"></path>
  <path fill="#dfdfdf" d="M148.96 242.419v688.676h989.774V245.877L643.833 586.771z" class="colore7e4d7 svgShape"></path>
  <path fill="#b3b3b3" d="M148.96 931.095l494.873-344.324-2.24-1.586L148.96 923.527z" class="colorb8b7ae svgShape"></path>
  <path fill="#b2b2b2" d="M1138.734 245.877l.283 685.218-495.184-344.324z" class="colorb7b6ad svgShape"></path>
  <path fill="#707070" d="M1284.066 142.044l.17 684.51c-2.494 76.082-35.461 103.238-145.219 104.514l-.283-685.219 145.36-103.833-.028.028z" class="colorb2392f svgShape"></path>
  <linearGradient id="b" x1="1959.712" x2="26066.213" y1="737.107" y2="737.107" gradientTransform="matrix(.0283 0 0 -.0283 248.36 225.244)" gradientUnits="userSpaceOnUse">
    <stop offset="0" stop-color="#ffffff" class="stopColorf8f6ef svgShape"></stop>
    <stop offset="1" stop-color="#dedede" class="stopColore7e4d6 svgShape"></stop>
  </linearGradient>
  <path fill="url(#b)" d="M111.713 7.087l532.12 394.525L1179.439 7.087z"></path>
  <linearGradient id="c" x1="1959.712" x2="26066.213" y1="737.107" y2="737.107" gradientTransform="matrix(.0283 0 0 -.0283 248.36 225.244)" gradientUnits="userSpaceOnUse">
    <stop offset="0" stop-color="#ffffff" class="stopColorf8f6ef svgShape"></stop>
    <stop offset="1" stop-color="#dedede" class="stopColore7e4d6 svgShape"></stop>
  </linearGradient>
  <path fill="url(#c)" d="M111.713 7.087l532.12 394.525L1179.439 7.087z"></path>
  <linearGradient id="d" x1="1959.712" x2="26066.213" y1="737.107" y2="737.107" gradientTransform="matrix(.0283 0 0 -.0283 248.36 225.244)" gradientUnits="userSpaceOnUse">
    <stop offset="0" stop-color="#ffffff" class="stopColorf8f6ef svgShape"></stop>
    <stop offset="1" stop-color="#dedede" class="stopColore7e4d6 svgShape"></stop>
  </linearGradient>
  <path fill="url(#d)" d="M111.713 7.087l532.12 394.525L1179.439 7.087z"></path>
  <linearGradient id="e" x1="1959.712" x2="26066.213" y1="737.107" y2="737.107" gradientTransform="matrix(.0283 0 0 -.0283 248.36 225.244)" gradientUnits="userSpaceOnUse">
    <stop offset="0" stop-color="#ffffff" class="stopColorf8f6ef svgShape"></stop>
    <stop offset="1" stop-color="#dedede" class="stopColore7e4d6 svgShape"></stop>
  </linearGradient>
  <path fill="url(#e)" d="M111.713 7.087l532.12 394.525L1179.439 7.087z"></path>
  <linearGradient id="f" x1="1959.712" x2="26066.213" y1="737.107" y2="737.107" gradientTransform="matrix(.0283 0 0 -.0283 248.36 225.244)" gradientUnits="userSpaceOnUse">
    <stop offset="0" stop-color="#ffffff" class="stopColorf8f6ef svgShape"></stop>
    <stop offset="1" stop-color="#dedede" class="stopColore7e4d6 svgShape"></stop>
  </linearGradient>
  <path fill="url(#f)" d="M111.713 7.087l532.12 394.525L1179.439 7.087z"></path>
  <linearGradient id="g" x1="1959.712" x2="26066.213" y1="737.107" y2="737.107" gradientTransform="matrix(.0283 0 0 -.0283 248.36 225.244)" gradientUnits="userSpaceOnUse">
    <stop offset="0" stop-color="#ffffff" class="stopColorf8f6ef svgShape"></stop>
    <stop offset="1" stop-color="#dedede" class="stopColore7e4d6 svgShape"></stop>
  </linearGradient>
  <path fill="url(#g)" d="M111.713 7.087l532.12 394.525L1179.439 7.087z"></path>
  <linearGradient id="h" x1="1959.712" x2="26066.213" y1="737.107" y2="737.107" gradientTransform="matrix(.0283 0 0 -.0283 248.36 225.244)" gradientUnits="userSpaceOnUse">
    <stop offset="0" stop-color="#ffffff" class="stopColorf8f6ef svgShape"></stop>
    <stop offset="1" stop-color="#dedede" class="stopColore7e4d6 svgShape"></stop>
  </linearGradient>
  <path fill="url(#h)" d="M111.713 7.087l532.12 394.525L1179.439 7.087z"></path>
  <path fill="#f2f2f2" d="M111.713 7.087l532.12 394.525L1179.439 7.087z" class="colorf7f5ed svgShape"></path>
</svg>
